<svg viewBox="0 0 400 300" xmlns="http://www.w3.org/2000/svg"><path d="m161.39 81.52a26.91 26.91 0 0 0 19.18-.6c10.47-4.26 1.59-13.49 1.54-13.45s-10.3 1-10.3 1z" fill="#f4a28c"/><path d="m161.39 81.52a26.91 26.91 0 0 0 19.18-.6c10.47-4.26 1.59-13.49 1.54-13.45s-10.3 1-10.3 1z" opacity=".04"/><ellipse cx="206.45" cy="235.95" fill="#e6e6e6" opacity=".39" rx="112.51" ry="18.21"/><path d="m144.57 158.97h127.15v76.99h-127.15z" fill="#ffd200"/><path d="m135.04 146.73h146.72v12.23h-146.72z" fill="#ffd200"/><path d="m135.04 146.73 20.51-38.95h108.26l17.96 38.95z" fill="#ffd200"/><path d="m135.04 146.73 20.51-38.95h108.26l17.96 38.95z" opacity=".04"/><path d="m144.57 158.97h127.15v8.3h-127.15z" opacity=".04"/><g fill="#24285b"><path d="m178.71 189.31 4.53 14.22h.17l4.53-14.22h4.39l-6.45 18.69h-5.1l-6.46-18.71z"/><path d="m210.72 198.67a10.9 10.9 0 0 1 -1.15 5.21 8 8 0 0 1 -3.15 3.27 9.41 9.41 0 0 1 -8.94 0 8.12 8.12 0 0 1 -3.13-3.28 12.35 12.35 0 0 1 0-10.41 8.12 8.12 0 0 1 3.13-3.28 9.41 9.41 0 0 1 8.94 0 8.1 8.1 0 0 1 3.15 3.28 10.87 10.87 0 0 1 1.15 5.21zm-4 0a8.34 8.34 0 0 0 -.59-3.35 4.52 4.52 0 0 0 -1.66-2.06 4.76 4.76 0 0 0 -5 0 4.52 4.52 0 0 0 -1.66 2.06 9.78 9.78 0 0 0 0 6.69 4.5 4.5 0 0 0 1.66 2.07 4.81 4.81 0 0 0 5 0 4.5 4.5 0 0 0 1.66-2.07 8.29 8.29 0 0 0 .58-3.34z"/><path d="m212.1 192.57v-3.26h15.37v3.26h-5.73v15.43h-3.91v-15.43z"/><path d="m230 208v-18.69h12.61v3.26h-8.61v4.43h8v3.26h-8v4.47h8.69v3.27z"/><path d="m60.23 72.07 80.68-13.96 5.18 35.14-85.86 30.39z"/><path d="m248.4 127.56h-79.4l1.72-6.12h76.09z"/></g><path d="m141.41 61.49 8.7-2.02 4.42 28.38-8.94 1.99z" fill="#68e1fd"/><path d="m235.38 127.56h-50.89l-14.51-59.53 48.03-11.71z" fill="#68e1fd"/><path d="m150.12 59.55 3.49 22.37s17.74.82 23.62-7.87 6.63-10.65 15.32-3.66 19.91 6 22.21 0-10-21.87-21.45-24.16-43.19 13.32-43.19 13.32z" fill="#f4a28c"/><path d="m181.21 81.87h10.28v10.28h-10.28z" fill="#24285b" transform="matrix(.9711759 -.23836396 .23836396 .9711759 -15.36 46.91)"/><path d="m195.36 79.48h22.16v5.04h-22.16z" fill="#fff" opacity=".3" transform="matrix(.9711759 -.23836396 .23836396 .9711759 -13.59 51.55)"/><path d="m185.46 97.87h10.28v10.28h-10.28z" fill="#24285b" transform="matrix(.9711759 -.23836396 .23836396 .9711759 -19.05 48.38)"/><path d="m199.62 95.48h22.16v5.04h-22.16z" fill="#fff" opacity=".3" transform="matrix(.9711759 -.23836396 .23836396 .9711759 -17.28 53.03)"/><path d="m188.62 103.38 2.63 1.92 1.37-5.08" fill="none" stroke="#fff" stroke-linecap="round" stroke-linejoin="round"/><path d="m189.8 113.86h10.28v10.28h-10.28z" fill="#24285b" transform="matrix(.9711759 -.23836396 .23836396 .9711759 -22.74 49.88)"/><path d="m203.95 111.48h22.16v5.04h-22.16z" fill="#fff" opacity=".3" transform="matrix(.9711759 -.23836396 .23836396 .9711759 -20.97 54.52)"/><path d="m183.74 124.5 49.73-4.78 1.91 7.84h-50.89z" opacity=".04"/><circle cx="133.94" cy="69.14" fill="#fff" r="3.06"/></svg>