<svg viewBox="0 0 72 72" xmlns="http://www.w3.org/2000/svg"><path d="m51.024 14.0213c-1.6705-3.0089-3.6713-4.5339-5.9477-4.5339-2.6203 0-5.3416 2.0624-8.0912 6.133-.3517.521-.6812 1.042-.985 1.5449-.3038-.5029-.6333-1.0238-.9857-1.5449-2.7479-4.0705-5.4701-6.133-8.0904-6.133-2.2762 0-4.278 1.5249-5.9476 4.5339-1.2484 2.252-1.1453 4.0191-.548 4.9787 1.0765 1.7294 3.8299 2.7454 7.7039 3.4114 2.9746.5127 6.1222.5886 7.7335.5886h.0009.1335.1344c1.6114 0 4.759-.0759 7.7336-.5886 3.8731-.666 6.6256-1.682 7.7039-3.4114.5954-.9596.7013-2.7266-.5481-4.9787z" fill="#d22f27"/><path d="m16 36h39v25h-39z" fill="#fcea2b"/><path d="m53.3905 35.5-36.3905.0581v5.5l27.1429 3.9285 10.8571 1.5134v-10.9419z" fill="#f1b31c"/><path d="m29.7143 60h12.5714v-15.7271l-12.5714-2.4872z" fill="#ea5a47"/><path d="m14 21h44v14h-44z" fill="#fcea2b"/><path d="m29.7143 22h12.5714v13h-12.5714z" fill="#ea5a47"/><path d="m42.2857 35.5-12.5714.0202v7.3535l12.5714 1.8334z" fill="#d22f27"/><g fill="none" stroke="#000" stroke-miterlimit="10" stroke-width="2"><path d="m54.0913 21.3571h-36.7356" stroke-linecap="round" stroke-linejoin="round"/><path d="m17.3557 21.3571h-3.3557v14.1429h2.3571v25.1429h39.2858v-25.1429h2.3571v-14.1429h-3.9087" stroke-linecap="round" stroke-linejoin="round"/><path d="m16.3571 35.5h40.0715" stroke-linecap="round" stroke-linejoin="round"/><path d="m50.9612 18.2506c.3839-.9798.4917-2.3937-.4893-4.2293-1.6091-3.0089-3.5365-4.5339-5.7293-4.5339-2.5241 0-5.1454 2.0624-7.794 6.133-.3388.521-.6562 1.042-.9488 1.5449-.2926-.5029-.61-1.0238-.9495-1.5449-2.647-4.0705-5.2692-6.133-7.7933-6.133-2.1926 0-4.1209 1.5249-5.7292 4.5339-.9019 1.689-.8835 3.0211-.5752 3.9863" stroke-linecap="round" stroke-linejoin="round"/><path d="m42.2857 60v-15.7271"/><path d="m29.7143 41.7857v18.2143"/><path d="m42.2857 35v-13"/><path d="m29.7143 22v13"/><path d="m42.2857 44.7071v-9.2071l-12.5714.0202v7.3535"/></g></svg>
