<svg xmlns="http://www.w3.org/2000/svg" viewBox="0 0 511.784 511.784" style="enable-background:new 0 0 511.784 511.784" xml:space="preserve"><path style="fill:#fd9808" d="m473.53 58.625-60.587 152.747c-7.68 17.92-18.773 33.28-33.28 45.227v15.36c2.56-.853 5.12-2.56 7.68-3.413 23.04-11.947 40.96-33.28 50.347-57.173l61.44-152.747h-25.6z" transform="translate(1 1)"/><path style="fill:#ffdd09" d="m374.544 58.625-34.133 51.2h-17.067v34.133h34.133v128c2.56-.853 5.12-2.56 7.68-3.413 23.04-11.947 40.96-33.28 50.347-57.173l61.44-152.747h-102.4zm-221.867 85.334h34.133v-34.133h-17.067l-34.133-51.2H33.21l60.587 152.747c9.387 24.747 27.307 45.227 50.347 57.173 2.56 1.707 5.12 2.56 7.68 3.413v-128h.853z" transform="translate(1 1)"/><path style="fill:#fcc309" d="m255.077 451.159-25.6-27.307c-70.827-75.093-110.933-175.787-110.933-279.893l136.533-85.333 136.533 85.333c0 104.107-40.107 203.947-110.933 279.893l-25.6 27.307z" transform="translate(1 1)"/><path style="fill:#ffdd09" d="M254.224 400.812c-61.44-64.853-97.28-149.333-101.547-238.08l102.4-63.147 101.547 64c-4.267 88.747-40.107 173.227-101.547 238.08h-.853v-.853z" transform="translate(1 1)"/><path style="fill:#fff" d="M93.797 211.372 33.21 58.625H7.61l60.587 152.747c9.387 24.747 27.307 45.227 50.347 57.173 2.56 1.707 5.12 2.56 7.68 3.413v-15.36c-13.654-11.946-24.747-27.306-32.427-45.226" transform="translate(1 1)"/><path d="M68.344 102.292h-46.08c-5.12 0-8.533-3.413-8.533-8.533 0-5.12 3.413-8.533 8.533-8.533h46.08c5.12 0 8.533 3.413 8.533 8.533 0 5.12-3.413 8.533-8.533 8.533zm8.533 34.133h-40.96c-5.12 0-8.533-3.413-8.533-8.533 0-5.12 3.413-8.533 8.533-8.533h40.96c5.12 0 8.533 3.413 8.533 8.533 0 5.12-3.413 8.533-8.533 8.533zm17.067 34.134H49.57c-5.12 0-8.533-3.413-8.533-8.533s3.413-8.533 8.533-8.533h44.373c5.12 0 8.533 3.413 8.533 8.533s-3.412 8.533-8.532 8.533zm395.946-68.267h-46.08c-5.12 0-8.533-3.413-8.533-8.533 0-5.12 3.413-8.533 8.533-8.533h46.08c5.12 0 8.533 3.413 8.533 8.533.001 5.12-3.413 8.533-8.533 8.533zm-13.653 34.133h-40.96c-5.12 0-8.533-3.413-8.533-8.533 0-5.12 3.413-8.533 8.533-8.533h40.96c5.12 0 8.533 3.413 8.533 8.533 0 5.12-3.413 8.533-8.533 8.533zm-13.653 34.134H418.21c-5.12 0-8.533-3.413-8.533-8.533s3.413-8.533 8.533-8.533h44.373c5.12 0 8.533 3.413 8.533 8.533s-3.412 8.533-8.532 8.533zM256.077 460.692c-2.56 0-4.267-.853-5.973-2.56l-25.6-27.307c-10.24-10.24-19.627-21.333-28.16-33.28-2.56-3.413-1.707-9.387 1.707-11.947 3.413-2.56 9.387-1.707 11.947 1.707 8.533 11.093 17.92 22.187 27.307 32.427l18.773 20.48 18.773-20.48c69.12-73.387 107.52-168.96 108.373-269.653L256.077 69.865l-128 80.213c.853 65.707 17.92 131.413 50.347 189.44 2.56 4.267.853 9.387-3.413 11.947-4.267 2.56-9.387.853-11.947-3.413-34.133-62.293-52.053-132.267-52.053-203.093 0-2.56 1.707-5.973 4.267-6.827L251.81 52.799c2.56-1.707 5.973-1.707 9.387 0l136.533 85.333c1.707 1.707 3.413 4.267 3.413 6.827 0 106.667-40.107 208.213-113.493 285.867l-25.6 27.307c-1.706 1.706-3.413 2.559-5.973 2.559z"/><path d="M256.077 411.199c-2.56 0-4.267-.853-5.973-2.56l-.853-.853c-62.293-66.56-98.987-152.747-103.253-243.2 0-3.413 1.707-5.973 4.267-7.68l101.547-64c2.56-1.707 5.973-1.707 9.387 0l101.547 64c2.56 1.707 4.267 4.267 4.267 7.68a388.1 388.1 0 0 1-104.107 243.2l-.853.853c-1.709 1.706-3.416 2.56-5.976 2.56zm-93.013-242.347c5.12 81.92 38.4 160.427 93.013 221.867 55.467-61.44 87.893-139.947 93.013-221.867l-93.013-58.88-93.013 58.88z"/><path d="M140.024 280.639h-.853c-23.893-3.413-45.227-16.213-60.587-34.133-5.973-7.68-11.093-16.213-14.507-24.747L.93 63.039c-1.707-2.56-.853-5.973.853-7.68s4.267-4.267 6.827-4.267h128c2.56 0 5.12.853 6.827 3.413l40.96 49.493c1.707 1.707 2.56 4.267 1.707 6.827 0 2.56-1.707 4.267-4.267 5.973l-53.76 34.133c.853 40.107 6.827 80.213 19.627 119.467.853 2.56 0 5.973-1.707 8.533-1.707.854-3.413 1.708-5.973 1.708zM21.41 68.159l58.88 146.773c2.56 6.827 6.827 13.653 11.947 19.627 9.387 11.947 21.333 20.48 35.84 24.747-11.947-36.693-17.067-75.093-17.067-114.347 0-2.56 1.707-5.973 4.267-6.827l49.493-30.72-32.427-39.253H21.41zm350.72 212.48c-2.56 0-5.12-.853-6.827-3.413s-2.56-5.12-1.707-8.533c12.8-39.253 19.627-79.36 19.627-119.467l-53.76-34.133c-1.707-1.707-3.413-3.413-4.267-5.973 0-2.56 0-5.12 1.707-6.827l40.96-49.493c2.56 0 5.12-1.707 7.68-1.707h128c2.56 0 5.12 1.707 6.827 3.413 1.707 2.56 1.707 5.12.853 7.68l-63.147 159.573c-3.413 8.533-8.533 17.067-14.507 23.893-15.36 18.773-36.693 30.72-60.587 34.133.002.854.002.854-.852.854zm-24.746-174.08 49.493 30.72c2.56 2.56 4.267 5.12 4.267 7.68 0 39.253-5.12 77.653-16.213 115.2 13.653-5.12 26.453-13.653 35.84-24.747 5.12-5.973 8.533-12.8 11.947-19.627l58.027-147.627H379.81l-32.426 38.401zm-152.747 261.12c0-5.12-3.413-8.533-8.533-8.533-5.12 0-8.533 3.413-8.533 8.533s3.413 8.533 8.533 8.533c5.12 0 8.533-3.413 8.533-8.533"/><text x="210" y="290" style="font:700 180px sans" transform="translate(1 1)">J</text></svg>