<svg height="32" viewBox="0 0 32 32" width="32" xmlns="http://www.w3.org/2000/svg" xmlns:xlink="http://www.w3.org/1999/xlink"><linearGradient id="a" gradientUnits="userSpaceOnUse" x1="384.571446" x2="407.571416" y1="515.797997" y2="537.797757"><stop offset="0" stop-color="#fcfcfc" stop-opacity=".260638"/><stop offset="1" stop-color="#5ea5fb" stop-opacity="0"/></linearGradient><linearGradient id="b"><stop offset="0" stop-color="#292c2f"/><stop offset="1" stop-opacity="0"/></linearGradient><linearGradient id="c" gradientUnits="userSpaceOnUse" x2="0" y1="545.79797" y2="517.79797"><stop offset="0" stop-color="#3889e9"/><stop offset="1" stop-color="#5ea5fb"/></linearGradient><linearGradient id="d" gradientUnits="userSpaceOnUse" x1="399.57144" x2="402.57144" xlink:href="#b" y1="524.79797" y2="527.79797"/><linearGradient id="e" gradientUnits="userSpaceOnUse" x1="10.00001" x2="21.00001" xlink:href="#b" y1="11.99997" y2="22.99997"/><linearGradient id="f" gradientUnits="userSpaceOnUse" x2="0" y1="23" y2="8"><stop offset="0" stop-color="#8cbdf8"/><stop offset="1" stop-color="#d5e8ff"/></linearGradient><g transform="translate(-384.57143 -515.798)"><circle cx="400.57138" cy="531.79791" fill="url(#c)" r="13.999958" stroke-width="4"/><path d="m14 4.1699219a11.999958 11.999958 0 0 0 -1 .2207031v3.609375h-4v-1.7285156a11.999958 11.999958 0 0 0 -1 .8027344v.9257812h-.9277344a11.999958 11.999958 0 0 0 -.8066406 1h1.734375v4h-3.6054688a11.999958 11.999958 0 0 0 -.2128906 1h3.8183594v4h-3.8300781a11.999958 11.999958 0 0 0 .2207031 1h3.609375v4h-1.7285156a11.999958 11.999958 0 0 0 .8027344 1h.9257812v.927734a11.999958 11.999958 0 0 0 1 .806641v-1.734375h4v3.603516a11.999958 11.999958 0 0 0 1 .214843v-3.818359h4v3.830078a11.999958 11.999958 0 0 0 1-.220703v-3.609375h4v1.728516a11.999958 11.999958 0 0 0 1-.802735v-.925781h.927734a11.999958 11.999958 0 0 0 .806641-1h-1.734375v-4h3.603516a11.999958 11.999958 0 0 0 .214843-1h-3.818359v-4h3.830078a11.999958 11.999958 0 0 0 -.220703-1h-3.609375v-4h1.728516a11.999958 11.999958 0 0 0 -.802735-1h-.925781v-.9277344a11.999958 11.999958 0 0 0 -1-.8066406v1.734375h-4v-3.6054688a11.999958 11.999958 0 0 0 -1-.2128906v3.8183594h-4zm-5 4.8300781h4v4h-4zm5 0h4v4h-4zm5 0h4v4h-4zm-10 5h4v4h-4zm5 0h4v4h-4zm5 0h4v4h-4zm-10 5h4v4h-4zm5 0h4v4h-4zm5 0h4v4h-4z" fill="#fcfcfc" fill-opacity=".058824" stroke-opacity=".313725" transform="translate(384.57143 515.798)"/><path d="m20 12-4 4v1l-6 6 6.964844 6.964844a13.999958 13.999958 0 0 0 12.986328-13.013672l-4.951172-4.951172z" fill="url(#e)" fill-rule="evenodd" opacity=".2" transform="translate(384.57143 515.798)"/><circle cx="400.57144" cy="531.79797" fill="url(#a)" r="13.999958" stroke-width="4"/><ellipse cx="400.57138" cy="531.79791" fill="url(#c)" stroke-width="4"/><path d="m16 4a11.999958 11.999958 0 0 0 -12 12 11.999958 11.999958 0 0 0 12 12 11.999958 11.999958 0 0 0 12-12 11.999958 11.999958 0 0 0 -12-12zm0 1a10.999958 10.999958 0 0 1 11 11 10.999958 10.999958 0 0 1 -11 11 10.999958 10.999958 0 0 1 -11-11 10.999958 10.999958 0 0 1 11-11z" fill="#fff" opacity=".2" stroke-width="3.42857" transform="translate(384.57143 515.798)"/><g fill-rule="evenodd"><path d="m399.57143 524.798 4 4 2-2-2-2z" fill="url(#d)" opacity=".2"/><path d="m18.142578 8.0136719c-1.047404.0771275-2.142578.4820268-3.142578.9824219 2 0 3 .9992099 4 2.0000002l2 2.001953v1.001953l1 1 3-3.001953-1-1.001953h-1l-2-2.0000002c-.810385-.808905-1.810018-1.0595494-2.857422-.9824219zm.857422 2.9863281-4 4h-1l-6 6 2 2 6-6v-1l4-4z" fill="url(#f)" transform="translate(384.57143 515.798)"/></g></g></svg>