<svg enable-background="new 0 0 512 512" viewBox="0 0 512 512" xmlns="http://www.w3.org/2000/svg"><path d="m143.159 58.589h18.101v79.053h-18.101z" fill="#e1e2e0" transform="matrix(-.7071 -.7071 .7071 -.7071 190.4586 275.1225)"/><path d="m129.195 92.31h18.101v39.542h-18.101z" fill="#caccc6" transform="matrix(-.7071 -.7071 .7071 -.7071 156.7464 289.0889)"/><path d="m108.229 119.643c-3.609 3.606-9.459 3.606-13.067 0l-30.853-30.854c-3.607-3.609-3.608-9.46 0-13.067l65.516-65.516c3.608-3.607 9.459-3.607 13.066 0l30.854 30.853c3.608 3.609 3.608 9.459 0 13.067z" fill="#878993"/><path d="m436.225 27.689c-215.369 0-200.954-.816-203.673 1.904-167.501 167.504-157.958 156.715-157.958 160.652v299.857c0 8.214 6.683 14.897 14.897 14.897h346.733c8.215 0 14.898-6.683 14.898-14.897v-447.514c.001-8.215-6.681-14.899-14.897-14.899zm-24.532 63.468c0 11.511-9.363 20.874-20.874 20.874h-121.339c-11.511 0-20.874-9.363-20.874-20.874s9.363-20.875 20.874-20.875h121.338c11.511 0 20.875 9.365 20.875 20.875z" fill="#fc5151"/><path d="m102.563 195.354 167.662-167.665c-35.46 0-35.13-.638-37.671 1.904-167.503 167.504-157.96 156.715-157.96 160.652v299.857c0 8.214 6.683 14.897 14.897 14.897h11.065c.001-325.857-.953-306.687 2.007-309.645z" fill="#d33333"/><path d="m281.765 308.094 107.34-117.572c4.655-5.098 4.294-13.006-.804-17.66-5.098-4.655-13.006-4.296-17.66.804l-105.803 115.887-105.802-115.888c-4.655-5.099-12.563-5.459-17.66-.804-5.099 4.654-5.459 12.563-.804 17.66l107.34 117.572-107.34 117.573c-4.655 5.098-4.295 13.006.804 17.66 5.095 4.653 13.004 4.297 17.66-.804l105.803-115.888 105.803 115.888c2.466 2.701 5.845 4.072 9.235 4.072 10.816 0 16.552-12.91 9.228-20.929z" fill="#ff8c01"/><path d="m301.868 286.074 87.237-95.552c4.655-5.098 4.294-13.006-.804-17.66-5.098-4.655-13.006-4.296-17.66.804l-79.819 87.428c3.255 8.55 6.949 16.886 11.046 24.98z" fill="#ffa403"/><path d="m450.506 75.99c4.143 0 7.5-3.357 7.5-7.5v-25.902c0-12.075-9.824-21.898-21.899-21.898-217.028 0-203.724-.944-206.865 2.196l-42.932 42.932-6.908-6.909c6.12-6.643 5.855-16.827-.471-23.155l-30.854-30.853c-3.161-3.161-7.364-4.901-11.835-4.901s-8.674 1.74-11.837 4.901l-65.516 65.517c-6.526 6.524-6.527 17.145 0 23.675l30.854 30.855c3.161 3.16 7.364 4.901 11.836 4.901 4.235 0 8.219-1.579 11.319-4.432l6.908 6.908c-53.993 53.994-52.328 51.116-52.328 55.436v302.342c-.001 12.074 9.822 21.897 21.896 21.897h346.733c12.075 0 21.899-9.823 21.899-21.897v-396.612c0-4.143-3.357-7.5-7.5-7.5s-7.5 3.357-7.5 7.5v396.611c0 3.803-3.094 6.896-6.898 6.896h-346.733c-3.803 0-6.896-3.094-6.896-6.896v-299.236c6.686-6.686 155.174-155.176 155.174-155.176h198.454c3.804 0 6.898 3.094 6.898 6.897v25.901c.001 4.145 3.359 7.502 7.501 7.502zm-361.03-14.945 33.312 33.314-4.874 4.875-33.312-33.314zm15.481-15.481 33.313 33.313-4.875 4.875-33.312-33.314zm15.481-15.481 33.313 33.313-4.873 4.874-33.313-33.313zm15.804-15.082c.329 0 .808.088 1.229.509 31.807 31.806 32.571 31.593 30.854 33.313l-3.966 3.966-33.313-33.313c4.128-4.129 4.196-4.475 5.196-4.475zm-34.664 99.847c-.329 0-.81-.089-1.23-.509l-30.852-30.853c-.679-.68-.68-1.783-.001-2.461l4.499-4.499 33.313 33.314c-4.726 4.727-4.729 5.008-5.729 5.008zm21.95-.015c4.374-4.374 39.663-39.664 45.291-45.292l6.884 6.885-45.291 45.291z"/><path d="m419.576 91.157c0-15.922-12.953-28.876-28.875-28.876h-121.338c-15.922 0-28.875 12.954-28.875 28.876s12.953 28.875 28.875 28.875h121.338c15.922-.001 28.875-12.953 28.875-28.875zm-28.875 13.874h-121.338c-7.649 0-13.874-6.224-13.874-13.874s6.224-13.875 13.874-13.875h121.338c7.65 0 13.874 6.224 13.874 13.875 0 7.65-6.224 13.874-13.874 13.874z"/><path d="m362.677 208.218c-2.793 3.06-2.577 7.803.482 10.597 3.06 2.794 7.804 2.578 10.597-.482l20.771-22.752c7.453-8.163 6.881-20.802-1.284-28.257-8.256-7.537-20.877-6.799-28.258 1.285l-100.263 109.82-100.264-109.82c-12.029-13.176-33.948-5.097-34.752 12.576-.243 5.337 1.607 10.45 5.209 14.395l102.722 112.516-102.72 112.513c-11.63 12.736-2.672 33.487 14.767 33.487 5.609 0 10.995-2.375 14.775-6.516l100.263-109.82 100.263 109.82c3.78 4.141 9.165 6.516 14.775 6.516 17.456 0 26.379-20.769 14.768-33.486l-102.724-112.516 65.443-71.681c2.793-3.059 2.577-7.803-.482-10.597-3.059-2.793-7.803-2.577-10.597.482l-70.061 76.737c-2.614 2.864-2.614 7.249 0 10.114 116.159 127.234 108.777 118.216 108.643 121.171-.202 4.464-5.71 6.407-8.688 3.145l-105.801-115.887c-2.972-3.256-8.106-3.256-11.079 0-114.411 125.317-106.343 117.516-109.5 117.516-4.299 0-6.633-5.146-3.689-8.371l107.341-117.571c2.614-2.864 2.614-7.249 0-10.114-116.158-127.232-108.777-118.216-108.643-121.17.061-1.335.638-2.565 1.625-3.467.986-.899 2.273-1.358 3.597-1.302 1.335.061 2.565.638 3.466 1.624 113.643 124.476 106.614 118.331 111.342 118.331 4.725 0-2.379 6.229 111.343-118.332 1.825-2.001 4.975-2.224 7.063-.32 2.04 1.863 2.187 5.022.321 7.063z"/><path d="m202.124 460.528c-4.142 0-7.5 3.357-7.5 7.5s3.358 7.5 7.5 7.5h125.195c4.142 0 7.5-3.357 7.5-7.5s-3.358-7.5-7.5-7.5z"/></svg>